<?xml version="1.0" encoding="UTF-8" standalone="no"?>
<svg
   xmlns:dc="http://purl.org/dc/elements/1.1/"
   xmlns:cc="http://creativecommons.org/ns#"
   xmlns:rdf="http://www.w3.org/1999/02/22-rdf-syntax-ns#"
   xmlns:svg="http://www.w3.org/2000/svg"
   xmlns="http://www.w3.org/2000/svg"
   id="svg4641"
   version="1.1"
   viewBox="0 0 12.26975 6.3499999"
   height="6.3499999mm"
   width="12.269751mm">
  <defs
     id="defs4635" />
  <metadata
     id="metadata4638">
    <rdf:RDF>
      <cc:Work
         rdf:about="">
        <dc:format>image/svg+xml</dc:format>
        <dc:type
           rdf:resource="http://purl.org/dc/dcmitype/StillImage" />
        <dc:title></dc:title>
      </cc:Work>
    </rdf:RDF>
  </metadata>
  <g
     transform="translate(-64.559062,-155.91416)"
     id="layer1">
    <path
       id="path4623"
       d="m 69.733161,155.91416 h 6.35 v 6.35 h -6.35 z"
       style="fill:none;stroke-width:0.26458332" />
    <path
       style="stroke-width:0.26458332"
       id="path4625"
       d="m 75.024821,156.97249 h -4.23333 c -0.29104,0 -0.52652,0.23812 -0.52652,0.52917 l -0.003,3.175 c 0,0.29104 0.23813,0.52916 0.52917,0.52916 h 4.23333 c 0.29104,0 0.52917,-0.23812 0.52917,-0.52916 v -3.175 c 0,-0.29105 -0.23813,-0.52917 -0.52917,-0.52917 z m -0.26458,3.70417 h -3.70417 c -0.14552,0 -0.26458,-0.11907 -0.26458,-0.26459 v -2.38125 l 1.83621,1.14829 c 0.17198,0.10848 0.38894,0.10848 0.56091,0 l 1.83621,-1.14829 v 2.38125 c 0,0.14552 -0.11906,0.26459 -0.26458,0.26459 z m -1.85208,-1.85209 -2.11667,-1.32291 h 4.23333 z" />
    <text
       id="text4663"
       y="159.89073"
       x="64.411957"
       style="font-style:normal;font-weight:normal;font-size:5.64444447px;line-height:1.25;font-family:sans-serif;letter-spacing:0px;word-spacing:0px;fill:#000000;fill-opacity:1;stroke:none;stroke-width:0.26458332"
       xml:space="preserve"><tspan
         style="font-style:normal;font-variant:normal;font-weight:bold;font-stretch:normal;font-size:4.93888903px;font-family:'Matura MT Script Capitals';-inkscape-font-specification:'Matura MT Script Capitals';stroke-width:0.26458332"
         y="159.89073"
         x="64.411957"
         id="tspan4661">@</tspan></text>
    <path
       style="fill:#ffffff;stroke-width:0.3498258"
       id="path4679-2"
       d="m 68.246148,158.53017 h -1.571803 c -0.192405,0 -0.349826,0.15743 -0.349826,0.34983 0,0.1924 0.157421,0.55028 0.349826,0.55028 h 1.571803 v 0.42573 c 0,0.15743 0.188909,0.23439 0.297352,0.12244 l 0.972516,-0.97601 c 0.06647,-0.07 -0.08387,-0.17841 -0.150339,-0.24838 l -0.972516,-0.97601 c -0.108446,-0.11195 -0.142931,-0.0315 -0.147013,0.12244 z" />
    <path
       style="stroke-width:0.20882602"
       id="path4679"
       d="m 68.39112,158.77544 h -1.614296 c -0.114855,0 -0.208827,0.094 -0.208827,0.20883 0,0.11485 0.09397,0.20883 0.208827,0.20883 h 1.614296 v 0.37379 c 0,0.094 0.112766,0.13992 0.177502,0.0731 l 0.580537,-0.58262 c 0.03968,-0.0418 0.03968,-0.1065 0,-0.14827 l -0.580537,-0.58263 c -0.06473,-0.0669 -0.177502,-0.0188 -0.177502,0.0731 z" />
    <path
       style="fill:#ffffff;stroke-width:0.3498258"
       id="path4679-2-7"
       d="m 75.542356,158.53017 h -1.166723 c -0.192405,0 -0.349826,0.15743 -0.349826,0.34983 0,0.1924 0.157421,0.55028 0.349826,0.55028 h 1.166723 v 0.42573 c 0,0.15743 0.188909,0.23439 0.297352,0.12244 l 0.972516,-0.97601 c 0.06647,-0.07 -0.08387,-0.17841 -0.150339,-0.24838 l -0.972516,-0.97601 c -0.108446,-0.11195 -0.142931,-0.0315 -0.147013,0.12244 z" />
    <path
       style="stroke-width:0.20882602"
       id="path4679-6"
       d="m 75.687328,158.77544 h -1.276033 c -0.114855,0 -0.208827,0.094 -0.208827,0.20883 0,0.11485 0.09397,0.20883 0.208827,0.20883 h 1.276033 v 0.37379 c 0,0.094 0.112766,0.13992 0.177502,0.0731 l 0.580537,-0.58262 c 0.03968,-0.0418 0.03968,-0.1065 0,-0.14827 l -0.580537,-0.58263 c -0.06473,-0.0669 -0.177502,-0.0188 -0.177502,0.0731 z" />
    <path
       id="path4787"
       d="m 42.779242,145.96048 h 6.35 v -6.35 h -6.35 z"
       style="fill:none;stroke-width:0.26458332" />
  </g>
</svg>
